<?xml version="1.0" encoding="UTF-8"?>
<svg width="1440px" height="456px" viewBox="0 0 1440 456" version="1.1" xmlns="http://www.w3.org/2000/svg" xmlns:xlink="http://www.w3.org/1999/xlink">
    <title>Default Hero Image / Desktop</title>
    <defs>
        <rect id="path-1" x="0" y="0" width="1440" height="456"></rect>
    </defs>
    <g id=":-Symbols-:" stroke="none" stroke-width="1" fill="none" fill-rule="evenodd">
        <g id="Default-Hero-Image-/-Desktop">
            <mask id="mask-2" fill="white">
                <use xlink:href="#path-1"></use>
            </mask>
            <use id="Rectangle" fill="#1E1E5A" xlink:href="#path-1"></use>
            <g id="graphic" mask="url(#mask-2)" stroke="#FFFFFF">
                <g transform="translate(556.7924, -178)">
                    <path d="M1117.52376,-25.4250716 C1175.4771,-25.4356075 1227.94827,-1.9549157 1265.93374,36.0167437 C1303.9192,73.9884032 1327.41897,126.45103 1327.42951,184.404183 L1327.28899,957.442629 C1327.27844,1015.42331 1303.77318,1067.91365 1265.77537,1105.91146 C1227.77757,1143.90926 1175.28723,1167.41453 1117.30654,1167.42507 C1059.35321,1167.43561 1006.88204,1143.95492 968.896571,1105.98326 C930.911102,1068.0116 907.411334,1015.54897 907.400798,957.595817 L907.541322,184.557371 C907.551863,126.576688 931.057131,74.0863473 969.054936,36.0885427 C1007.05274,-1.90926191 1059.54308,-25.4145308 1117.52376,-25.4250716 Z" id="Rectangle" transform="translate(1117.4152, 571) rotate(135) translate(-1117.4152, -571)"></path>
                    <path d="M570.8149,-25.4250716 C628.829534,-25.4145315 681.335574,-1.91273042 719.342306,36.080195 C757.354571,74.0786516 780.86329,126.572437 780.873832,184.557371 L781.014355,957.519327 C781.024891,1015.47266 757.5442,1067.94383 719.57254,1105.9293 C681.600881,1143.91477 629.138254,1167.41454 571.1851,1167.42507 C513.128059,1167.41453 460.637634,1143.90931 422.639783,1105.91146 C384.641978,1067.91365 361.136709,1015.42331 361.126168,957.442629 L360.985645,184.480673 C360.975109,126.527338 384.4558,74.0561696 422.42746,36.0707012 C460.399119,-1.91476712 512.861746,-25.4145357 570.8149,-25.4250716 Z" id="Rectangle-Copy" transform="translate(571, 571) rotate(225) translate(-571, -571)"></path>
                </g>
            </g>
        </g>
    </g>
</svg>